<svg xmlns="http://www.w3.org/2000/svg" viewBox="0 0 64 64" width="64" height="64" role="img" aria-label="一碗湯">
  <defs>
    <filter id="r" x="-25%" y="-25%" width="150%" height="150%">
      <feTurbulence type="fractalNoise" baseFrequency="0.09" numOctaves="2" seed="5" result="n"/>
      <feDisplacementMap in="SourceGraphic" in2="n" scale="1.6" xChannelSelector="R" yChannelSelector="G"/>
    </filter>
  </defs>
  <rect width="64" height="64" rx="14" fill="#EFE3D4"/>
  <g filter="url(#r)">
    <path d="M14 32 C14 29 22 28 32 28 C42 28 50 29 50 32 C50 44 42 52 32 52 C22 52 14 44 14 32 Z" fill="#E8C98C" stroke="#A9803F" stroke-width="2.2" stroke-linejoin="round"/>
    <path d="M17 33 C24 37 40 37 47 33 C46 44 40 49 32 49 C24 49 18 44 17 33 Z" fill="#DBA94F"/>
    <ellipse cx="26" cy="33" rx="5" ry="3.2" fill="#F7F1E2" stroke="#BFAE8A" stroke-width="1.3"/>
    <ellipse cx="39" cy="35" rx="4.2" ry="3" fill="#F6D978" stroke="#C79A2E" stroke-width="1.3"/>
    <path d="M24 22 C28 18 24 14 28 10 M38 22 C42 18 38 14 42 10" fill="none" stroke="#C9816A" stroke-width="2.4" stroke-linecap="round"/>
  </g>
</svg>
